<svg xmlns="http://www.w3.org/2000/svg" height="80" width="340"><path d="M32.27 75.328C20.633 73.031 11.617 66.411 6.8 56.627c-3.033-6.16-3.3-7.474-3.3-16.224 0-8.229.362-10.294 2.67-15.218 3.422-7.3 9.873-13.724 17.392-17.321 7.198-3.443 19.952-4.496 29.614-2.445 5.689 1.207 6.182 1.542 7.923 5.375 1.021 2.248 1.867 4.875 1.879 5.837.026 2.094-2.272 2.306-3.887.36-.635-.765-3.503-2.404-6.373-3.642-9.708-4.188-23.486-2.292-30.375 4.18-4.096 3.848-6.731 11.645-6.708 19.852.055 19.282 10.486 31.308 27.275 31.446 3.625.03 8.101-.583 9.949-1.362l3.359-1.416-.358-9.583-.36-9.584 5.394-.307c2.966-.169 5.766.066 6.222.522.456.456.547 5.454.203 11.105l-.626 10.276-4.449 2.607c-7.956 4.663-19.538 6.303-29.973 4.243zm56.784-1.674c-2.561-.904-6.459-3.582-9.192-6.314-13.728-13.729-8.177-37.996 10.173-44.47 10.392-3.666 23.609-.803 30.658 6.64 10.093 10.658 9.71 28.593-.821 38.566-7.408 7.015-20.196 9.33-30.819 5.58zm19.755-6.296c4.59-2.798 7.143-8.87 7.17-17.047.048-14.327-6.127-22.932-16.451-22.924-10.342.007-15.048 6.131-14.997 19.512.037 9.608 2.945 16.64 8.367 20.233 4.396 2.912 11.343 3.012 15.91.227zm27.19 7.384c-1.29-.352-1.48-4.077-1.33-26.634l.165-26.225h14.835c13.977 0 15.163.154 20.515 2.663 9.421 4.416 13.407 11.627 13.203 23.88-.124 7.46-1.917 12.435-6.186 17.16-4.224 4.675-8.776 7.143-15.997 8.673-4.982 1.056-21.91 1.38-25.201.482zm27.169-8.026c6.545-3.822 9.81-13.898 7.852-24.227-1.91-10.05-8.28-15.043-19.27-15.085l-5.75-.022V69.65l6.919-.495c4.268-.305 8.194-1.24 10.249-2.44zm39.83 7.942l-12.5-.331V5.303l6.458.29 6.458.29-.458 5.5c-.252 3.025-.458 16.975-.458 31v25.5l6-.291c3.3-.16 8.647-.753 11.882-1.318 3.235-.565 6.23-.66 6.656-.21s.473 2.619.105 4.819l-.669 4-5.487.053c-3.01.03-11.1-.096-17.98-.278zm115.87.001l-11.625-.338.471-19.719c.26-10.846.04-22.345-.486-25.554-.787-4.793-.7-5.933.485-6.388.794-.305 7.82-.604 15.612-.666l14.18-.112-.21 2.91c-.3 4.16-1.133 4.557-7.218 3.435-2.986-.55-6.942-.716-8.791-.37l-3.363.631.291 7.697.291 7.697 7.628-.351c4.196-.194 7.855.031 8.131.5.277.468.287 2.268.024 4l-.48 3.149-7.901-.542-7.9-.54v18.581l7.75-.636c4.262-.35 8.791-.926 10.064-1.281 2.195-.613 2.298-.42 2 3.737-.364 5.071 1.127 4.744-18.94 4.16zm-86.067-.802c-.289-.289-.095-2.876.43-5.75.888-4.853.632-40.365-.315-43.724-.34-1.203.864-1.557 6.077-1.79l6.5-.29v52.08h-6.083c-3.346 0-6.32-.236-6.609-.525zm22.7-25.475v-26h12.51l-.668 10.25c-.57 8.746-.46 10.09.745 9.16 7.2-5.553 20.577-16.918 21.213-18.022.94-1.629 13.7-2.004 13.7-.4 0 .542-1.462 1.624-3.25 2.405-1.787.78-7.808 5.196-13.38 9.813l-10.13 8.394 11.424 12.146c6.283 6.68 12.982 13.109 14.886 14.286 1.904 1.176 3.208 2.55 2.897 3.054-.31.503-3.801.87-7.756.817l-7.19-.098-11-11.847c-6.05-6.516-11.406-11.872-11.903-11.902-.521-.032-.648 5.016-.3 11.945l.604 12H255.5v-26z" fill="#fff"/></svg>